HIERARCHY
ROOT Hips
{
  OFFSET 0 89.5177 0.535
  CHANNELS 6 Xposition Yposition Zposition Zrotation Xrotation Yrotation
  JOINT Spine
  {
    OFFSET 12.0259 -0.162855 1.69034e-005
    CHANNELS 3 Zrotation Xrotation Yrotation
    JOINT Spine1
    {
      OFFSET 15.3169 -0.0121922 0
      CHANNELS 3 Zrotation Xrotation Yrotation
      JOINT Spine2
      {
        OFFSET 15.3176 -0.0121908 0
        CHANNELS 3 Zrotation Xrotation Yrotation
        JOINT Neck
        {
          OFFSET 19.9142 1.56338 0
          CHANNELS 3 Zrotation Xrotation Yrotation
          JOINT Head
          {
            OFFSET 6.92651 0 0
            CHANNELS 3 Zrotation Xrotation Yrotation
            End Site
            {
              OFFSET 20.7666 0 0
            }
          }
          JOINT LeftShoulder
          {
            OFFSET -6.20654 0.708824 7.28219
            CHANNELS 3 Zrotation Xrotation Yrotation
            JOINT LeftArm
            {
              OFFSET 14.108 0 -1.52588e-005
              CHANNELS 3 Zrotation Xrotation Yrotation
              JOINT LeftForeArm
              {
                OFFSET 28.5802 0 0
                CHANNELS 3 Zrotation Xrotation Yrotation
                JOINT LeftHand
                {
                  OFFSET 27.092 0 0
                  CHANNELS 3 Zrotation Xrotation Yrotation
                  End Site
                  {
                    OFFSET 9.55928 -0.186424 0.145352
                  }
                }
              }
            }
          }
          JOINT RightShoulder
          {
            OFFSET -6.20654 0.708866 -7.28218
            CHANNELS 3 Zrotation Xrotation Yrotation
            JOINT RightArm
            {
              OFFSET 14.108 0 1.52588e-005
              CHANNELS 3 Zrotation Xrotation Yrotation
              JOINT RightForeArm
              {
                OFFSET 28.5802 0 0
                CHANNELS 3 Zrotation Xrotation Yrotation
                JOINT RightHand
                {
                  OFFSET 27.092 0 0
                  CHANNELS 3 Zrotation Xrotation Yrotation
                  End Site
                  {
                    OFFSET 9.55929 -0.186417 -0.145354
                  }
                }
              }
            }
          }
        }
      }
    }
  }
  JOINT LeftUpLeg
  {
    OFFSET 0.005 -0.535 8.837
    CHANNELS 3 Zrotation Xrotation Yrotation
    JOINT LeftLeg
    {
      OFFSET 39.9035 0 0
      CHANNELS 3 Zrotation Xrotation Yrotation
      JOINT LeftFoot
      {
        OFFSET 39.6689 0 0
        CHANNELS 3 Zrotation Xrotation Yrotation
        JOINT LeftToe
        {
          OFFSET 10.1624 13.6296 0
          CHANNELS 3 Zrotation Xrotation Yrotation
          End Site
          {
            OFFSET 8.38147 0 0
          }
        }
      }
    }
  }
  JOINT RightUpLeg
  {
    OFFSET 0.005 -0.535 -8.837
    CHANNELS 3 Zrotation Xrotation Yrotation
    JOINT RightLeg
    {
      OFFSET 39.9035 0 0
      CHANNELS 3 Zrotation Xrotation Yrotation
      JOINT RightFoot
      {
        OFFSET 39.6689 0 0
        CHANNELS 3 Zrotation Xrotation Yrotation
        JOINT RightToe
        {
          OFFSET 10.1624 13.6296 0
          CHANNELS 3 Zrotation Xrotation Yrotation
          End Site
          {
            OFFSET 8.38147 0 0
          }
        }
      }
    }
  }
}
MOTION
Frames:	7
Frame Time:	0.0333333
319.928 71.1952 62.0363 -146.328 66.7616 -120.275 4.70554 -1.43497 2.98217 9.48312 -2.61802 6.07455 9.48312 -2.61802 6.07454 -8.3043e-012 -9.0191e-006 -5.27751e-005 -30.2676 -9.44807 -8.36653 -176.823 -12.5826 -75.7036 -30.1035 -34.7169 44.9273 -29.3898 -4.77083e-015 1.03368e-014 -40.1061 -65.6182 -45.4226 -179.025 4.24424 77.0526 -36.0205 40.839 -25.2549 -11.2392 -7.95139e-016 -3.57812e-015 -69.599 66.0985 73.1819 -81.7502 24.6883 -153.234 -95.0084 -3.18055e-015 -3.18055e-015 15.1877 7.02952 -10.083 90 -7.95139e-016 -0 -64.8835 -0.873194 168.625 -81.8652 1.19271e-015 5.96354e-016 37.0525 -13.1788 8.7855 90 -1.78906e-015 -9.54166e-015 
323.241 70.5363 65.4505 -153.982 67.0026 -111.965 4.81562 -0.892496 2.19352 9.66329 -1.59657 4.455 9.66329 -1.59657 4.45499 -8.30748e-012 -9.0191e-006 -5.27751e-005 -31.3145 -10.3482 -7.33298 -177.051 -13.9088 -77.9028 -26.504 -45.5626 43.1579 -24.0371 3.97569e-016 3.97569e-016 -39.2448 -64.0732 -44.4349 -178.899 5.80203 79.2356 -49.3808 45.5222 -18.9434 -15.6885 0 -0 -71.3498 66.5888 75.0855 -88.8829 24.1902 -151.332 -83.3159 -6.36111e-015 1.59028e-015 12.9987 6.08123 -8.74049 90 -1.98785e-015 3.18055e-015 -64.7295 -0.727245 165.244 -83.7109 3.97569e-016 -0 41.1493 -16.1224 13.3321 90 -1.19271e-015 -0 
326.644 69.8411 69.2504 -160.541 67.4432 -105.063 4.93037 -0.351234 1.35244 9.86784 -0.584358 2.73022 9.86784 -0.584358 2.73021 -8.31066e-012 -9.0191e-006 -5.27751e-005 -30.9922 -12.1111 -6.11744 -177.361 -15.9042 -80.4529 -22.9108 -56.3889 43.0836 -24.8448 0 -1.59028e-015 -43.4261 -64.5958 -49.0114 -178.649 8.27111 80.6883 -63.3446 46.0577 -8.83732 -22.0804 1.59028e-015 -0 -73.1718 66.4942 77.0867 -91.1624 22.3543 -150.947 -68.2945 -6.36111e-015 -6.55989e-015 10.4542 5.47339 -7.90408 90 7.95139e-016 3.18055e-015 -63.2287 -1.85014 162.261 -84.1425 7.95139e-016 -7.95139e-016 44.0523 -14.2125 12.0327 90 2.07482e-015 1.59028e-015 
330.172 69.1546 73.403 -167.013 67.549 -99.3027 4.99269 0.123722 0.591133 9.98389 0.2989 1.16937 9.98389 0.2989 1.16936 -8.31066e-012 -9.0191e-006 -5.27751e-005 -30.235 -14.162 -3.48522 -177.572 -18.6173 -82.4337 -26.2418 -65.0878 37.1771 -29.6215 3.18055e-015 4.77083e-015 -50.486 -64.5677 -56.7787 -178.599 10.8489 82.5978 -73.6042 47.1604 1.73675 -30.0116 -3.97569e-015 4.77083e-015 -76.2488 64.9706 80.5788 -88.3537 19.0801 -151.532 -49.7722 3.18055e-015 -3.97569e-015 9.11908 8.07305 -11.8562 90 -1.59028e-015 -3.18055e-015 -61.9421 -3.96524 159.94 -84.3805 1.59028e-015 1.59028e-015 44.6005 -10.1345 8.45682 90 6.21202e-018 -3.97569e-016 
334.004 68.0885 78.2192 -172.116 67.9396 -94.9426 4.9643 0.357861 -0.152951 9.92981 0.701629 -0.336199 9.92981 0.701628 -0.336208 -8.31702e-012 -9.0191e-006 -5.27751e-005 -27.9507 -16.1891 -0.260791 -177.947 -21.371 -84.382 -39.6831 -70.1692 20.8855 -34.8194 -3.18055e-015 -9.54166e-015 -55.2076 -63.5828 -62.0386 -178.904 14.1547 85.5265 -81.1407 50.5193 11.4852 -36.5633 3.77691e-015 -3.18055e-015 -78.7425 63.7395 83.4599 -80.9978 12.1852 -153.194 -36.2005 0 -3.18055e-015 8.60379 12.6225 -15.6843 90 -7.95139e-016 -0 -61.0707 -3.68745 156.522 -87.7835 0 -3.18056e-015 43.5874 -8.02104 11.9654 90 -1.98785e-016 -0 
337.819 66.5147 83.7323 -179.466 69.7401 -88.5397 4.79757 0.524136 -0.867816 9.60305 0.974278 -1.77642 9.60305 0.974278 -1.77643 -8.31066e-012 -9.0191e-006 -5.27751e-005 -23.0985 -17.3242 3.31529 -178.268 -24.4561 -85.822 -56.9298 -71.3579 1.04939 -39.29 0 -3.18055e-015 -59.48 -62.2633 -66.8794 -179.015 18.0302 86.8216 -88.4663 52.2503 20.7253 -38.185 -3.12465e-015 -1.06847e-015 -80.4586 61.7482 85.5803 -80.6606 9.73123 -150.665 -40.1652 -3.18055e-015 3.18055e-015 -10.8071 13.0967 -10.8146 90 3.97569e-016 3.18055e-015 -58.2581 -1.69321 154.75 -92.2674 4.77083e-015 4.77083e-015 42.5146 -5.66606 12.8993 90 0 3.18055e-015 
340.623 65.7715 88.3145 -178.572 69.9371 -90.0899 4.18818 -0.0963269 -1.49744 8.37246 -0.301229 -2.98375 8.37246 -0.30123 -2.98376 -8.31066e-012 -9.0191e-006 -5.27751e-005 -18.0839 -17.1747 8.51879 -178.867 -28.2939 -87.6101 -64.6656 -67.6087 -9.25383 -46.0182 4.77083e-015 3.18055e-015 -65.541 -59.5429 -73.9479 -178.92 21.0467 86.9967 -87.0338 55.8133 21.7663 -42.1564 -3.57812e-015 -1.59028e-015 -82.2995 60.2376 87.8486 -84.664 7.71567 -149.03 -51.6711 -3.18055e-015 2.38542e-015 -6.53328 15.8442 -17.446 90 -9.93923e-016 1.59028e-015 -55.7061 -0.448549 154.699 -95.455 2.38542e-015 7.95139e-015 42.2058 -0.382166 7.05314 90 -1.59028e-015 3.18055e-015 
